<mxfile host="app.diagrams.net" modified="2023-06-28T21:22:36.129Z" agent="Mozilla/5.0 (X11; Linux x86_64) AppleWebKit/537.36 (KHTML, like Gecko) Chrome/114.0.0.0 Safari/537.36" version="21.5.1" etag="0QgJzuyR1IZPnNWLDtW6" type="github">
  <diagram name="Page-1" id="iq0x9MhLSSQhZqSzIUtA">
    <mxGraphModel>
      <root>
        <mxCell id="0" />
        <mxCell id="1" parent="0" />
      </root>
    </mxGraphModel>
  </diagram>
</mxfile>
